UFC 110 Nogueira vs Velasquez [SatRiP-XviD-Mp3-ENG][TNTVillage.Scambioetico]



General
Complete name                    : C:UFC.110.Nogueira.vs.Velasquez.DSR.XviD-XWT.avi
Format                           : AVI
Format/Info                      : Audio Video Interleave
File size                        : 1.37 GiB
Duration                         : 2h 48mn
Overall bit rate                 : 1 164 Kbps

Video
Format                           : MPEG-4 Visual
Format profile                   : Streaming Video@L1
Format settings, BVOP            : Yes
Format settings, QPel            : No
Format settings, GMC             : No warppoints
Format settings, Matrix          : Default
Codec ID                         : XVID
Codec ID/Hint                    : XviD
Duration                         : 2h 48mn
Bit rate                         : 1 023 Kbps
Width                            : 640 pixels
Height                           : 368 pixels
Display aspect ratio             : 16/9
Frame rate                       : 25.000 fps
Resolution                       : 24 bits
Colorimetry                      : 4:2:0
Scan type                        : Progressive
Bits/(Pixel*Frame)               : 0.174
Stream size                      : 1.20 GiB (88%)
Writing library                  : XviD 1.1.2 (UTC 2006-11-01)

Audio
Format                           : MPEG Audio
Format version                   : Version 1
Format profile                   : Layer 3
Codec ID                         : 55
Codec ID/Hint                    : MP3
Duration                         : 2h 48mn
Bit rate mode                    : Constant
Bit rate                         : 128 Kbps
Channel(s)                       : 2 channels
Sampling rate                    : 44.1 KHz
Resolution                       : 16 bits
Stream size                      : 154 MiB (11%)
Alignment                        : Aligned on interleaves
Interleave, duration             : 26 ms (0.65 video frame)
Interleave, preload duration     : 809 ms


 
http://uptiki.com/images/oqxn32v8xbwb9uo998.png

 
http://uptiki.com/images/4rd62b6f4lui0nsdpebj.png

 
http://uptiki.com/images/k17cyiqif8pkr0vgs378.png

 
http://uptiki.com/images/n1l5ndfc6rehvegv35l1.png

 
http://uptiki.com/images/av27orpa9k9emnfdeql.png

 
http://uptiki.com/images/sfhvh5dvl4nqcdsgmchz.png

 
http://uptiki.com/images/9yk8g7nt15bjtqq10h89.png

 
http://uptiki.com/images/07o31iz40xtn04yi4d.png